<?xml version="1.0" encoding="utf-8"?>
<!-- Generator: Adobe Illustrator 24.2.1, SVG Export Plug-In . SVG Version: 6.00 Build 0)  -->
<svg version="1.1" xmlns="http://www.w3.org/2000/svg" xmlns:xlink="http://www.w3.org/1999/xlink" x="0px" y="0px"
	 viewBox="0 0 1366 1146" style="enable-background:new 0 0 1366 1146;" xml:space="preserve">
<style type="text/css">
	.st0{fill:#0000FF;}
	.st1{fill:#FFFF55;}
	.st2{fill:#FFFFFF;}
	.st3{fill:none;stroke:#000000;stroke-width:27;stroke-miterlimit:10;}
	.st4{fill:#FF0050;}
	.st5{fill:#FF9FCF;stroke:#000000;stroke-width:8;stroke-miterlimit:10;}
	.st6{fill:#FFFF55;stroke:#000000;stroke-width:8;stroke-miterlimit:10;}
	.st7{fill:none;stroke:#000000;stroke-width:8;stroke-miterlimit:10;}
	.st8{fill:none;stroke:#606060;stroke-width:10;stroke-miterlimit:10;}
	.st9{clip-path:url(#SVGID_2_);}
	.st10{clip-path:url(#SVGID_4_);}
	.st11{fill:#00FF00;}
	.st12{fill:none;stroke:#FFFFFF;stroke-width:8;stroke-miterlimit:10;}
	.st13{fill:#EFEFEF;}
	.st14{clip-path:url(#SVGID_6_);fill:none;stroke:#FFFFFF;stroke-width:8;stroke-miterlimit:10;}
	.st15{clip-path:url(#SVGID_8_);fill:none;stroke:#EFEFEF;stroke-width:8;stroke-miterlimit:10;}
	.st16{clip-path:url(#SVGID_10_);fill:none;stroke:#FFFFFF;stroke-width:8;stroke-miterlimit:10;}
	.st17{clip-path:url(#SVGID_12_);fill:none;stroke:#FFFFFF;stroke-width:8;stroke-miterlimit:10;}
	.st18{clip-path:url(#SVGID_14_);}
	.st19{fill:none;}
	.st20{fill:none;stroke:#FFFFFF;stroke-miterlimit:10;}
	.st21{fill:#FF9FCF;}
	.st22{fill:none;stroke:#EFEFEF;stroke-miterlimit:10;}
</style>
<g id="Camada_1">
	<g>
		<path class="st1" d="M209.26,0.12L76.13,273.4H0L133.13,0.12H209.26z M223.7,158.23c0.26,11.19-4.29,26.29-13.66,45.29
			c-5.73,11.97-14.12,23.23-25.18,33.77c-11.07,10.54-24.86,19.2-41.38,25.96c-16.53,6.77-35.33,10.15-56.41,10.15H35.14l25.77-52.7
			h51.92c4.69,0,8.72-1.49,12.1-4.49c3.38-2.99,6.37-7.22,8.98-12.69l12.49-25.38c2.6-5.47,3.45-9.69,2.54-12.69
			c-0.92-2.99-4.1-4.49-9.56-4.49H89.79l23.42-48.02h49.58c3.64,0,7.03-1.49,10.15-4.49c3.12-2.99,5.98-7.22,8.59-12.69L194.03,70
			c2.6-5.2,3.64-9.37,3.12-12.49c-0.52-3.12-3-4.68-7.42-4.68h-46.85l25.38-52.7h46.85c20.56,0,35.53,4.1,44.9,12.3
			s14.25,18.09,14.64,29.67c0.39,11.58-2.02,22.71-7.22,33.38c-7.03,14.83-15.49,27.2-25.38,37.09
			c-9.89,9.89-22.91,17.05-39.04,21.47C216.54,138.98,223.44,147.05,223.7,158.23z"/>
		<path class="st1" d="M312.32,273.4l74.57-213.16h-4.69L252.59,273.4h-73.4L356.05,0.12h120.63L385.72,273.4H312.32z
			 M396.65,157.06l-25.38,52.7H252.59l25.38-52.7H396.65z"/>
		<path class="st1" d="M740.98,0.12L607.86,273.4H492.3l62.85-165.14h-7.81L466.92,273.4H398.6L531.73,0.12h107.75l-62.85,181.54
			h6.25L671.1,0.12H740.98z"/>
		<path class="st1" d="M756.98,273.4l74.57-213.16h-4.68L697.25,273.4h-73.4L800.71,0.12h120.63L830.38,273.4H756.98z
			 M841.31,157.06l-25.38,52.7H697.25l25.38-52.7H841.31z"/>
		<path class="st1" d="M1185.64,0.12L1052.52,273.4H936.96l62.86-165.14H992L911.58,273.4h-68.32L976.39,0.12h107.75l-62.86,181.54
			h6.25l88.23-181.54H1185.64z"/>
		<path class="st1" d="M1201.64,273.4l74.57-213.16h-4.68L1141.91,273.4h-73.4L1245.37,0.12H1366l-90.96,273.28H1201.64z
			 M1285.97,157.06l-25.38,52.7h-118.68l25.38-52.7H1285.97z"/>
	</g>
	<g>
		<path class="st1" d="M209.26,291.12L76.13,564.4H0l133.13-273.28H209.26z M223.7,449.23c0.26,11.19-4.29,26.29-13.66,45.29
			c-5.73,11.97-14.12,23.23-25.18,33.77c-11.07,10.54-24.86,19.2-41.38,25.96c-16.53,6.77-35.33,10.15-56.41,10.15H35.14l25.77-52.7
			h51.92c4.69,0,8.72-1.49,12.1-4.49c3.38-2.99,6.37-7.22,8.98-12.69l12.49-25.38c2.6-5.47,3.45-9.69,2.54-12.69
			c-0.92-2.99-4.1-4.49-9.56-4.49H89.79l23.42-48.02h49.58c3.64,0,7.03-1.49,10.15-4.49c3.12-2.99,5.98-7.22,8.59-12.69L194.03,361
			c2.6-5.2,3.64-9.37,3.12-12.49c-0.52-3.12-3-4.68-7.42-4.68h-46.85l25.38-52.7h46.85c20.56,0,35.53,4.1,44.9,12.3
			s14.25,18.09,14.64,29.67c0.39,11.58-2.02,22.71-7.22,33.38c-7.03,14.83-15.49,27.2-25.38,37.09
			c-9.89,9.89-22.91,17.05-39.04,21.47C216.54,429.98,223.44,438.05,223.7,449.23z"/>
		<path class="st1" d="M312.32,564.4l74.57-213.16h-4.69L252.59,564.4h-73.4l176.85-273.28h120.63L385.72,564.4H312.32z
			 M396.65,448.06l-25.38,52.7H252.59l25.38-52.7H396.65z"/>
		<path class="st1" d="M740.98,291.12L607.86,564.4H492.3l62.85-165.14h-7.81L466.92,564.4H398.6l133.13-273.28h107.75
			l-62.85,181.54h6.25l88.23-181.54H740.98z"/>
		<path class="st1" d="M756.98,564.4l74.57-213.16h-4.68L697.25,564.4h-73.4l176.85-273.28h120.63L830.38,564.4H756.98z
			 M841.31,448.06l-25.38,52.7H697.25l25.38-52.7H841.31z"/>
		<path class="st1" d="M1185.64,291.12L1052.52,564.4H936.96l62.86-165.14H992L911.58,564.4h-68.32l133.13-273.28h107.75
			l-62.86,181.54h6.25l88.23-181.54H1185.64z"/>
		<path class="st1" d="M1201.64,564.4l74.57-213.16h-4.68L1141.91,564.4h-73.4l176.85-273.28H1366l-90.96,273.28H1201.64z
			 M1285.97,448.06l-25.38,52.7h-118.68l25.38-52.7H1285.97z"/>
	</g>
	<g>
		<path class="st1" d="M209.26,582.12L76.13,855.4H0l133.13-273.28H209.26z M223.7,740.23c0.26,11.19-4.29,26.29-13.66,45.29
			c-5.73,11.97-14.12,23.23-25.18,33.77c-11.07,10.54-24.86,19.2-41.38,25.96c-16.53,6.77-35.33,10.15-56.41,10.15H35.14l25.77-52.7
			h51.92c4.69,0,8.72-1.49,12.1-4.49c3.38-2.99,6.37-7.22,8.98-12.69l12.49-25.38c2.6-5.47,3.45-9.69,2.54-12.69
			c-0.92-2.99-4.1-4.49-9.56-4.49H89.79l23.42-48.02h49.58c3.64,0,7.03-1.49,10.15-4.49c3.12-2.99,5.98-7.22,8.59-12.69L194.03,652
			c2.6-5.2,3.64-9.37,3.12-12.49c-0.52-3.12-3-4.68-7.42-4.68h-46.85l25.38-52.7h46.85c20.56,0,35.53,4.1,44.9,12.3
			s14.25,18.09,14.64,29.67c0.39,11.58-2.02,22.71-7.22,33.38c-7.03,14.83-15.49,27.2-25.38,37.09
			c-9.89,9.89-22.91,17.05-39.04,21.47C216.54,720.98,223.44,729.05,223.7,740.23z"/>
		<path class="st1" d="M312.32,855.4l74.57-213.16h-4.69L252.59,855.4h-73.4l176.85-273.28h120.63L385.72,855.4H312.32z
			 M396.65,739.06l-25.38,52.7H252.59l25.38-52.7H396.65z"/>
		<path class="st1" d="M740.98,582.12L607.86,855.4H492.3l62.85-165.14h-7.81L466.92,855.4H398.6l133.13-273.28h107.75
			l-62.85,181.54h6.25l88.23-181.54H740.98z"/>
		<path class="st1" d="M756.98,855.4l74.57-213.16h-4.68L697.25,855.4h-73.4l176.85-273.28h120.63L830.38,855.4H756.98z
			 M841.31,739.06l-25.38,52.7H697.25l25.38-52.7H841.31z"/>
		<path class="st1" d="M1185.64,582.12L1052.52,855.4H936.96l62.86-165.14H992L911.58,855.4h-68.32l133.13-273.28h107.75
			l-62.86,181.54h6.25l88.23-181.54H1185.64z"/>
		<path class="st1" d="M1201.64,855.4l74.57-213.16h-4.68L1141.91,855.4h-73.4l176.85-273.28H1366l-90.96,273.28H1201.64z
			 M1285.97,739.06l-25.38,52.7h-118.68l25.38-52.7H1285.97z"/>
	</g>
	<g>
		<path class="st1" d="M209.26,873.12L76.13,1146.4H0l133.13-273.28H209.26z M223.7,1031.23c0.26,11.19-4.29,26.29-13.66,45.29
			c-5.73,11.97-14.12,23.23-25.18,33.77c-11.07,10.54-24.86,19.2-41.38,25.96c-16.53,6.77-35.33,10.15-56.41,10.15H35.14l25.77-52.7
			h51.92c4.69,0,8.72-1.49,12.1-4.49c3.38-2.99,6.37-7.22,8.98-12.69l12.49-25.38c2.6-5.47,3.45-9.69,2.54-12.69
			c-0.92-2.99-4.1-4.49-9.56-4.49H89.79l23.42-48.02h49.58c3.64,0,7.03-1.49,10.15-4.49c3.12-2.99,5.98-7.22,8.59-12.69L194.03,943
			c2.6-5.2,3.64-9.37,3.12-12.49c-0.52-3.12-3-4.68-7.42-4.68h-46.85l25.38-52.7h46.85c20.56,0,35.53,4.1,44.9,12.3
			s14.25,18.09,14.64,29.67c0.39,11.58-2.02,22.71-7.22,33.38c-7.03,14.83-15.49,27.2-25.38,37.09
			c-9.89,9.89-22.91,17.05-39.04,21.47C216.54,1011.98,223.44,1020.05,223.7,1031.23z"/>
		<path class="st1" d="M312.32,1146.4l74.57-213.16h-4.69L252.59,1146.4h-73.4l176.85-273.28h120.63l-90.96,273.28H312.32z
			 M396.65,1030.06l-25.38,52.7H252.59l25.38-52.7H396.65z"/>
		<path class="st1" d="M740.98,873.12L607.86,1146.4H492.3l62.85-165.14h-7.81l-80.42,165.14H398.6l133.13-273.28h107.75
			l-62.85,181.54h6.25l88.23-181.54H740.98z"/>
		<path class="st1" d="M756.98,1146.4l74.57-213.16h-4.68L697.25,1146.4h-73.4l176.85-273.28h120.63l-90.96,273.28H756.98z
			 M841.31,1030.06l-25.38,52.7H697.25l25.38-52.7H841.31z"/>
		<path class="st1" d="M1185.64,873.12l-133.13,273.28H936.96l62.86-165.14H992l-80.42,165.14h-68.32l133.13-273.28h107.75
			l-62.86,181.54h6.25l88.23-181.54H1185.64z"/>
		<path class="st1" d="M1201.64,1146.4l74.57-213.16h-4.68l-129.61,213.16h-73.4l176.85-273.28H1366l-90.96,273.28H1201.64z
			 M1285.97,1030.06l-25.38,52.7h-118.68l25.38-52.7H1285.97z"/>
	</g>
</g>
<g id="Camada_2">
</g>
<g id="Camada_3">
</g>
</svg>
